<mxfile host="app.diagrams.net" modified="2024-04-24T11:43:40.677Z" agent="Mozilla/5.0 (Macintosh; Intel Mac OS X 10_15_7) AppleWebKit/605.1.15 (KHTML, like Gecko) Version/16.5.2 Safari/605.1.15" etag="juTLpMioG0biWS2jIABf" version="24.2.8" type="github">
  <diagram name="Seite-1" id="ezMvlrNNZ5Zu8wMe8Xfi">
    <mxGraphModel dx="954" dy="561" grid="1" gridSize="10" guides="1" tooltips="1" connect="1" arrows="1" fold="1" page="1" pageScale="1" pageWidth="1169" pageHeight="827" math="0" shadow="0">
      <root>
        <mxCell id="0" />
        <mxCell id="1" parent="0" />
        <mxCell id="py0pB7v0MolOFSuLsv2h-1" value="" style="verticalLabelPosition=bottom;shadow=0;dashed=0;align=center;html=1;verticalAlign=top;shape=mxgraph.electrical.abstract.operational_amp_1;strokeWidth=2;" vertex="1" parent="1">
          <mxGeometry x="310" y="120" width="98" height="90" as="geometry" />
        </mxCell>
        <mxCell id="py0pB7v0MolOFSuLsv2h-3" value="" style="pointerEvents=1;verticalLabelPosition=bottom;shadow=0;dashed=0;align=center;html=1;verticalAlign=top;shape=mxgraph.electrical.capacitors.capacitor_1;direction=south;strokeWidth=2;" vertex="1" parent="1">
          <mxGeometry x="260" y="220" width="60" height="100" as="geometry" />
        </mxCell>
        <mxCell id="py0pB7v0MolOFSuLsv2h-4" value="R2" style="pointerEvents=1;verticalLabelPosition=bottom;shadow=0;dashed=0;align=center;html=1;verticalAlign=top;shape=mxgraph.electrical.resistors.resistor_1;rotation=-90;strokeWidth=2;" vertex="1" parent="1">
          <mxGeometry x="190" y="260" width="100" height="20" as="geometry" />
        </mxCell>
        <mxCell id="py0pB7v0MolOFSuLsv2h-5" value="R1&amp;nbsp;" style="pointerEvents=1;verticalLabelPosition=bottom;shadow=0;dashed=0;align=center;html=1;verticalAlign=top;shape=mxgraph.electrical.resistors.resistor_1;rotation=0;strokeWidth=2;" vertex="1" parent="1">
          <mxGeometry x="120" y="185" width="100" height="20" as="geometry" />
        </mxCell>
        <mxCell id="py0pB7v0MolOFSuLsv2h-6" value="" style="pointerEvents=1;verticalLabelPosition=bottom;shadow=0;dashed=0;align=center;html=1;verticalAlign=top;shape=mxgraph.electrical.resistors.resistor_1;rotation=0;strokeWidth=2;" vertex="1" parent="1">
          <mxGeometry x="140" y="20" width="100" height="20" as="geometry" />
        </mxCell>
        <mxCell id="py0pB7v0MolOFSuLsv2h-7" value="" style="pointerEvents=1;verticalLabelPosition=bottom;shadow=0;dashed=0;align=center;html=1;verticalAlign=top;shape=mxgraph.electrical.resistors.resistor_1;rotation=0;strokeWidth=2;" vertex="1" parent="1">
          <mxGeometry x="330" y="20" width="100" height="20" as="geometry" />
        </mxCell>
        <mxCell id="py0pB7v0MolOFSuLsv2h-8" value="V&lt;sub&gt;dd&lt;/sub&gt;" style="verticalLabelPosition=top;verticalAlign=bottom;shape=mxgraph.electrical.signal_sources.vdd;shadow=0;dashed=0;align=center;strokeWidth=2;fontSize=24;html=1;flipV=1;" vertex="1" parent="1">
          <mxGeometry x="20" y="120" width="60" height="40" as="geometry" />
        </mxCell>
        <mxCell id="py0pB7v0MolOFSuLsv2h-9" value="V&lt;sub&gt;dd&lt;/sub&gt;" style="verticalLabelPosition=top;verticalAlign=bottom;shape=mxgraph.electrical.signal_sources.vdd;shadow=0;dashed=0;align=center;strokeWidth=2;fontSize=24;html=1;flipV=1;" vertex="1" parent="1">
          <mxGeometry x="340" y="90" width="60" height="40" as="geometry" />
        </mxCell>
        <mxCell id="py0pB7v0MolOFSuLsv2h-10" value="" style="pointerEvents=1;verticalLabelPosition=bottom;shadow=0;dashed=0;align=center;html=1;verticalAlign=top;shape=mxgraph.electrical.signal_sources.signal_ground;strokeWidth=2;" vertex="1" parent="1">
          <mxGeometry x="347.5" y="200" width="45" height="30" as="geometry" />
        </mxCell>
        <mxCell id="py0pB7v0MolOFSuLsv2h-12" value="" style="endArrow=none;html=1;rounded=0;entryX=1;entryY=0.5;entryDx=0;entryDy=0;entryPerimeter=0;exitDx=0;exitDy=0;exitPerimeter=0;strokeWidth=2;" edge="1" parent="1" source="py0pB7v0MolOFSuLsv2h-16" target="py0pB7v0MolOFSuLsv2h-5">
          <mxGeometry width="50" height="50" relative="1" as="geometry">
            <mxPoint x="390" y="270" as="sourcePoint" />
            <mxPoint x="440" y="220" as="targetPoint" />
          </mxGeometry>
        </mxCell>
        <mxCell id="py0pB7v0MolOFSuLsv2h-13" value="" style="endArrow=none;html=1;rounded=0;entryX=0.5;entryY=0;entryDx=0;entryDy=0;entryPerimeter=0;exitX=0;exitY=0.5;exitDx=0;exitDy=0;exitPerimeter=0;strokeWidth=2;" edge="1" parent="1" source="py0pB7v0MolOFSuLsv2h-5" target="py0pB7v0MolOFSuLsv2h-8">
          <mxGeometry width="50" height="50" relative="1" as="geometry">
            <mxPoint x="320" y="205" as="sourcePoint" />
            <mxPoint x="230" y="205" as="targetPoint" />
            <Array as="points">
              <mxPoint x="50" y="195" />
            </Array>
          </mxGeometry>
        </mxCell>
        <mxCell id="py0pB7v0MolOFSuLsv2h-14" value="" style="endArrow=none;html=1;rounded=0;entryX=1;entryY=0.5;entryDx=0;entryDy=0;entryPerimeter=0;strokeWidth=2;" edge="1" parent="1" target="py0pB7v0MolOFSuLsv2h-4">
          <mxGeometry width="50" height="50" relative="1" as="geometry">
            <mxPoint x="240" y="195" as="sourcePoint" />
            <mxPoint x="440" y="220" as="targetPoint" />
          </mxGeometry>
        </mxCell>
        <mxCell id="py0pB7v0MolOFSuLsv2h-15" value="" style="endArrow=none;html=1;rounded=0;entryX=0;entryY=0.5;entryDx=0;entryDy=0;entryPerimeter=0;strokeWidth=2;" edge="1" parent="1" target="py0pB7v0MolOFSuLsv2h-3">
          <mxGeometry width="50" height="50" relative="1" as="geometry">
            <mxPoint x="290" y="195" as="sourcePoint" />
            <mxPoint x="250" y="230" as="targetPoint" />
          </mxGeometry>
        </mxCell>
        <mxCell id="py0pB7v0MolOFSuLsv2h-17" value="" style="endArrow=none;html=1;rounded=0;entryDx=0;entryDy=0;entryPerimeter=0;exitDx=0;exitDy=0;exitPerimeter=0;strokeWidth=2;" edge="1" parent="1" source="py0pB7v0MolOFSuLsv2h-18" target="py0pB7v0MolOFSuLsv2h-16">
          <mxGeometry width="50" height="50" relative="1" as="geometry">
            <mxPoint x="310" y="195" as="sourcePoint" />
            <mxPoint x="220" y="195" as="targetPoint" />
          </mxGeometry>
        </mxCell>
        <mxCell id="py0pB7v0MolOFSuLsv2h-16" value="" style="shape=waypoint;sketch=0;fillStyle=solid;size=6;pointerEvents=1;points=[];fillColor=none;resizable=0;rotatable=0;perimeter=centerPerimeter;snapToPoint=1;strokeWidth=2;" vertex="1" parent="1">
          <mxGeometry x="230" y="185" width="20" height="20" as="geometry" />
        </mxCell>
        <mxCell id="py0pB7v0MolOFSuLsv2h-19" value="" style="endArrow=none;html=1;rounded=0;entryDx=0;entryDy=0;entryPerimeter=0;exitX=0;exitY=0.835;exitDx=0;exitDy=0;exitPerimeter=0;strokeWidth=2;" edge="1" parent="1" source="py0pB7v0MolOFSuLsv2h-1" target="py0pB7v0MolOFSuLsv2h-18">
          <mxGeometry width="50" height="50" relative="1" as="geometry">
            <mxPoint x="310" y="195" as="sourcePoint" />
            <mxPoint x="240" y="195" as="targetPoint" />
          </mxGeometry>
        </mxCell>
        <mxCell id="py0pB7v0MolOFSuLsv2h-18" value="" style="shape=waypoint;sketch=0;fillStyle=solid;size=6;pointerEvents=1;points=[];fillColor=none;resizable=0;rotatable=0;perimeter=centerPerimeter;snapToPoint=1;strokeWidth=2;" vertex="1" parent="1">
          <mxGeometry x="280" y="185" width="20" height="20" as="geometry" />
        </mxCell>
        <mxCell id="py0pB7v0MolOFSuLsv2h-20" value="" style="pointerEvents=1;verticalLabelPosition=bottom;shadow=0;dashed=0;align=center;html=1;verticalAlign=top;shape=mxgraph.electrical.signal_sources.signal_ground;strokeWidth=2;" vertex="1" parent="1">
          <mxGeometry x="217.5" y="350" width="45" height="30" as="geometry" />
        </mxCell>
        <mxCell id="py0pB7v0MolOFSuLsv2h-21" value="" style="endArrow=none;html=1;rounded=0;strokeWidth=2;entryX=0;entryY=0.5;entryDx=0;entryDy=0;entryPerimeter=0;exitDx=0;exitDy=0;exitPerimeter=0;" edge="1" parent="1" source="py0pB7v0MolOFSuLsv2h-23" target="py0pB7v0MolOFSuLsv2h-4">
          <mxGeometry width="50" height="50" relative="1" as="geometry">
            <mxPoint x="390" y="270" as="sourcePoint" />
            <mxPoint x="440" y="220" as="targetPoint" />
          </mxGeometry>
        </mxCell>
        <mxCell id="py0pB7v0MolOFSuLsv2h-22" value="" style="endArrow=none;html=1;rounded=0;strokeWidth=2;entryX=1;entryY=0.5;entryDx=0;entryDy=0;entryPerimeter=0;" edge="1" parent="1" target="py0pB7v0MolOFSuLsv2h-3">
          <mxGeometry width="50" height="50" relative="1" as="geometry">
            <mxPoint x="240" y="340" as="sourcePoint" />
            <mxPoint x="440" y="220" as="targetPoint" />
            <Array as="points">
              <mxPoint x="290" y="340" />
            </Array>
          </mxGeometry>
        </mxCell>
        <mxCell id="py0pB7v0MolOFSuLsv2h-24" value="" style="endArrow=none;html=1;rounded=0;strokeWidth=2;entryDx=0;entryDy=0;entryPerimeter=0;exitX=0.5;exitY=0;exitDx=0;exitDy=0;exitPerimeter=0;" edge="1" parent="1" source="py0pB7v0MolOFSuLsv2h-20" target="py0pB7v0MolOFSuLsv2h-23">
          <mxGeometry width="50" height="50" relative="1" as="geometry">
            <mxPoint x="240" y="350" as="sourcePoint" />
            <mxPoint x="240" y="320" as="targetPoint" />
          </mxGeometry>
        </mxCell>
        <mxCell id="py0pB7v0MolOFSuLsv2h-23" value="" style="shape=waypoint;sketch=0;fillStyle=solid;size=6;pointerEvents=1;points=[];fillColor=none;resizable=0;rotatable=0;perimeter=centerPerimeter;snapToPoint=1;strokeWidth=2;" vertex="1" parent="1">
          <mxGeometry x="230" y="330" width="20" height="20" as="geometry" />
        </mxCell>
        <mxCell id="py0pB7v0MolOFSuLsv2h-25" value="" style="endArrow=none;html=1;rounded=0;strokeWidth=2;entryX=0;entryY=0.5;entryDx=0;entryDy=0;entryPerimeter=0;" edge="1" parent="1" target="py0pB7v0MolOFSuLsv2h-6">
          <mxGeometry width="50" height="50" relative="1" as="geometry">
            <mxPoint x="30" y="30" as="sourcePoint" />
            <mxPoint x="440" y="220" as="targetPoint" />
          </mxGeometry>
        </mxCell>
        <mxCell id="py0pB7v0MolOFSuLsv2h-26" value="" style="endArrow=none;html=1;rounded=0;strokeWidth=2;entryX=0;entryY=0.5;entryDx=0;entryDy=0;entryPerimeter=0;exitX=1;exitY=0.5;exitDx=0;exitDy=0;exitPerimeter=0;" edge="1" parent="1" source="py0pB7v0MolOFSuLsv2h-6" target="py0pB7v0MolOFSuLsv2h-7">
          <mxGeometry width="50" height="50" relative="1" as="geometry">
            <mxPoint x="235" y="29.5" as="sourcePoint" />
            <mxPoint x="345" y="29.5" as="targetPoint" />
          </mxGeometry>
        </mxCell>
        <mxCell id="py0pB7v0MolOFSuLsv2h-27" value="" style="endArrow=none;html=1;rounded=0;entryX=0;entryY=0.165;entryDx=0;entryDy=0;entryPerimeter=0;strokeWidth=2;" edge="1" parent="1" source="py0pB7v0MolOFSuLsv2h-28" target="py0pB7v0MolOFSuLsv2h-1">
          <mxGeometry width="50" height="50" relative="1" as="geometry">
            <mxPoint x="260" y="30" as="sourcePoint" />
            <mxPoint x="440" y="220" as="targetPoint" />
            <Array as="points">
              <mxPoint x="260" y="135" />
            </Array>
          </mxGeometry>
        </mxCell>
        <mxCell id="py0pB7v0MolOFSuLsv2h-29" value="" style="endArrow=none;html=1;rounded=0;entryDx=0;entryDy=0;entryPerimeter=0;strokeWidth=2;" edge="1" parent="1" target="py0pB7v0MolOFSuLsv2h-28">
          <mxGeometry width="50" height="50" relative="1" as="geometry">
            <mxPoint x="260" y="30" as="sourcePoint" />
            <mxPoint x="310" y="135" as="targetPoint" />
            <Array as="points" />
          </mxGeometry>
        </mxCell>
        <mxCell id="py0pB7v0MolOFSuLsv2h-28" value="" style="shape=waypoint;sketch=0;fillStyle=solid;size=6;pointerEvents=1;points=[];fillColor=none;resizable=0;rotatable=0;perimeter=centerPerimeter;snapToPoint=1;strokeWidth=2;" vertex="1" parent="1">
          <mxGeometry x="250" y="20" width="20" height="20" as="geometry" />
        </mxCell>
        <mxCell id="py0pB7v0MolOFSuLsv2h-30" value="" style="endArrow=none;html=1;rounded=0;exitX=1;exitY=0.5;exitDx=0;exitDy=0;exitPerimeter=0;strokeWidth=2;" edge="1" parent="1" source="py0pB7v0MolOFSuLsv2h-1">
          <mxGeometry width="50" height="50" relative="1" as="geometry">
            <mxPoint x="390" y="270" as="sourcePoint" />
            <mxPoint x="620" y="165" as="targetPoint" />
          </mxGeometry>
        </mxCell>
        <mxCell id="py0pB7v0MolOFSuLsv2h-32" value="" style="endArrow=none;html=1;rounded=0;exitDx=0;exitDy=0;exitPerimeter=0;strokeWidth=2;" edge="1" parent="1" source="py0pB7v0MolOFSuLsv2h-33">
          <mxGeometry width="50" height="50" relative="1" as="geometry">
            <mxPoint x="418" y="175" as="sourcePoint" />
            <mxPoint x="490" y="164" as="targetPoint" />
            <Array as="points">
              <mxPoint x="490" y="30" />
            </Array>
          </mxGeometry>
        </mxCell>
        <mxCell id="py0pB7v0MolOFSuLsv2h-33" value="" style="shape=waypoint;sketch=0;fillStyle=solid;size=6;pointerEvents=1;points=[];fillColor=none;resizable=0;rotatable=0;perimeter=centerPerimeter;snapToPoint=1;strokeWidth=2;" vertex="1" parent="1">
          <mxGeometry x="480" y="155" width="20" height="20" as="geometry" />
        </mxCell>
        <mxCell id="py0pB7v0MolOFSuLsv2h-35" value="" style="endArrow=none;html=1;rounded=0;strokeWidth=2;exitX=1;exitY=0.5;exitDx=0;exitDy=0;exitPerimeter=0;" edge="1" parent="1" source="py0pB7v0MolOFSuLsv2h-7">
          <mxGeometry width="50" height="50" relative="1" as="geometry">
            <mxPoint x="250" y="40" as="sourcePoint" />
            <mxPoint x="490" y="30" as="targetPoint" />
          </mxGeometry>
        </mxCell>
      </root>
    </mxGraphModel>
  </diagram>
</mxfile>
